<svg width="198" height="36" viewBox="0 0 198 36" fill="none" xmlns="http://www.w3.org/2000/svg">
<path fill-rule="evenodd" clip-rule="evenodd" d="M5.46667 15.2887V29.3776H0V6.71095L5.86667 6.6665L12.6222 22.1332L5.46667 15.2887ZM12.6669 22.1776L19.4225 6.6665H25.3336V29.3332H19.8669V15.2443L12.6669 22.1776ZM44.9329 16.8444C45.3329 17.9555 45.5551 19.2444 45.5551 20.7111H45.5107V22H33.6885C33.6885 22.9333 33.8662 23.7777 34.2218 24.4444C34.5773 25.1555 35.0662 25.6889 35.7329 26.0444C36.3551 26.4444 37.1107 26.6222 37.9996 26.6222C38.6218 26.6222 39.1107 26.5333 39.5996 26.3555C40.0885 26.1777 40.4885 25.9111 40.844 25.6C41.1996 25.2889 41.4662 24.8889 41.644 24.4L45.3773 24.8C45.1551 25.7777 44.7107 26.6666 44.044 27.3777C43.3773 28.0889 42.5329 28.6666 41.5107 29.0666C40.4885 29.4666 39.3329 29.6889 37.9996 29.6889C36.3107 29.6889 34.844 29.3333 33.5996 28.6222C32.3551 27.9111 31.4218 26.8889 30.7551 25.6C30.0885 24.3111 29.7773 22.7555 29.7773 20.9777C29.7773 19.2 30.0885 17.6889 30.7551 16.3555C31.4218 15.0222 32.3551 14 33.5551 13.2444C34.7551 12.4889 36.1773 12.1333 37.7773 12.1333C38.844 12.1333 39.8218 12.2666 40.7551 12.6222C41.6885 12.9777 42.5329 13.4666 43.244 14.1777C43.9551 14.8889 44.5329 15.7777 44.9329 16.8444ZM34.2218 17.3777C33.9551 17.9555 33.7773 18.5777 33.7329 19.2444H41.5996C41.5996 18.4889 41.4218 17.8222 41.1107 17.2C40.7996 16.5777 40.3551 16.1333 39.7773 15.7777C39.1996 15.4222 38.5329 15.2444 37.7773 15.2444C36.9773 15.2444 36.2662 15.4222 35.644 15.8222C35.0662 16.2222 34.5773 16.7555 34.2218 17.3777ZM49.866 29.3333V12.3555H53.6882V15.2444H53.866C54.2216 14.2666 54.7993 13.5111 55.6438 12.9777C56.4438 12.4444 57.4216 12.1333 58.5771 12.1333C59.7327 12.1333 60.7104 12.4 61.5104 12.9777C62.3104 13.5555 62.8438 14.3111 63.1993 15.2444H63.3771C63.7327 14.3111 64.3993 13.5555 65.2882 12.9777C66.1771 12.4 67.2438 12.1333 68.4882 12.1333C70.0438 12.1333 71.3327 12.6222 72.3104 13.6C73.2882 14.5777 73.7771 16.0444 73.7771 17.9111V29.3333H69.7771V18.5777C69.7771 17.5111 69.5105 16.7555 68.9327 16.2666C68.3549 15.7777 67.6882 15.5111 66.8882 15.5111C65.9104 15.5111 65.1549 15.8222 64.6216 16.4C64.0882 17.0222 63.8216 17.7777 63.8216 18.7555V29.3333H59.9104V18.4C59.9104 17.5111 59.6438 16.8444 59.1104 16.3111C58.5771 15.7777 57.9104 15.5111 57.066 15.5111C56.4882 15.5111 55.9549 15.6444 55.5104 15.9555C55.066 16.2666 54.666 16.6666 54.3993 17.2C54.1327 17.7333 53.9993 18.3555 53.9993 19.0222V29.3333H49.866ZM78.8881 6.7111V29.3333H82.8437V26.6667H83.0659C83.2881 27.0667 83.5548 27.5111 83.9548 27.9556C84.3548 28.4 84.8881 28.8 85.5103 29.1111C86.1326 29.4222 86.9326 29.6 87.9103 29.6C89.2437 29.6 90.4437 29.2444 91.5103 28.5778C92.577 27.9111 93.377 26.8889 93.9992 25.6C94.6214 24.3111 94.9326 22.7111 94.9326 20.8444C94.9326 18.9333 94.6214 17.3333 93.9992 16.0444C93.377 14.7556 92.5326 13.7778 91.4659 13.1111C90.3992 12.4889 89.1992 12.1333 87.9103 12.1333C86.9326 12.1333 86.0881 12.2667 85.4659 12.6222C84.8437 12.9333 84.3103 13.3333 83.9548 13.8222C83.5548 14.3111 83.2881 14.7556 83.0659 15.1556H82.8881V6.7111H78.8881ZM83.2881 23.7333C82.977 22.8889 82.7992 21.9556 82.7992 20.8444C82.7992 19.7778 82.977 18.8 83.3326 18C83.5992 17.1556 84.0881 16.5333 84.6659 16.0889C85.2437 15.6444 85.9992 15.4222 86.8437 15.4222C87.7326 15.4222 88.4881 15.6889 89.0659 16.1333C89.6437 16.5778 90.0881 17.2444 90.3992 18.0444C90.7103 18.8444 90.8437 19.7778 90.8437 20.8444C90.8437 21.9111 90.7103 22.8444 90.3992 23.6889C90.1326 24.5333 89.6437 25.1556 89.0659 25.6444C88.4881 26.1333 87.7326 26.3556 86.8437 26.3556C85.9992 26.3556 85.2437 26.0889 84.6659 25.6444C84.0437 25.2 83.5992 24.5778 83.2881 23.7333ZM114.311 20.7111C114.311 19.2444 114.089 17.9555 113.689 16.8444C113.289 15.7777 112.711 14.8889 112 14.1777C111.289 13.4666 110.445 12.9777 109.511 12.6222C108.578 12.2666 107.6 12.1333 106.534 12.1333C104.934 12.1333 103.511 12.4889 102.311 13.2444C101.111 14 100.178 15.0222 99.5113 16.3555C98.8447 17.6889 98.5336 19.2 98.5336 20.9777C98.5336 22.7555 98.8447 24.3111 99.5113 25.6C100.178 26.8889 101.111 27.9111 102.356 28.6222C103.6 29.3333 105.067 29.6889 106.756 29.6889C108.089 29.6889 109.245 29.4666 110.267 29.0666C111.289 28.6666 112.134 28.0889 112.8 27.3777C113.467 26.6666 113.911 25.7777 114.134 24.8L110.4 24.4C110.222 24.8889 109.956 25.2889 109.6 25.6C109.245 25.9111 108.845 26.1777 108.356 26.3555C107.867 26.5333 107.378 26.6222 106.756 26.6222C105.867 26.6222 105.111 26.4444 104.489 26.0444C103.822 25.6889 103.334 25.1555 102.978 24.4444C102.622 23.7777 102.445 22.9333 102.445 22H114.267V20.7111H114.311ZM102.534 19.2444C102.578 18.5777 102.756 17.9555 103.022 17.3777C103.378 16.7555 103.867 16.2222 104.445 15.8222C105.067 15.4222 105.778 15.2444 106.578 15.2444C107.334 15.2444 108 15.4222 108.578 15.7777C109.156 16.1333 109.6 16.5777 109.911 17.2C110.222 17.8222 110.4 18.4889 110.4 19.2444H102.534ZM118.622 12.3555V29.3333H122.622V19.3777C122.622 18.6666 122.8 18 123.111 17.4666C123.467 16.9333 123.911 16.4889 124.489 16.1777C125.067 15.8666 125.733 15.6889 126.444 15.6889C126.8 15.6889 127.156 15.7333 127.511 15.7777C127.787 15.8122 128.009 15.8734 128.178 15.9198C128.227 15.9333 128.271 15.9455 128.311 15.9555V12.2666C128.089 12.2222 127.867 12.1777 127.6 12.1777C127.333 12.1333 127.067 12.1333 126.844 12.1333C125.867 12.1333 125.022 12.4 124.267 12.9333C123.511 13.4666 122.978 14.2222 122.667 15.2H122.489V12.3555H118.622ZM144.266 16.1777L141.911 16.8444C141.777 16.4444 141.555 16.0889 141.244 15.6889C140.977 15.3333 140.577 15.0222 140.088 14.7555C139.6 14.4889 138.977 14.4 138.222 14.4C137.2 14.4 136.311 14.6222 135.644 15.1111C134.977 15.6 134.622 16.1777 134.622 16.9333C134.622 17.6 134.844 18.0889 135.333 18.4889C135.822 18.8444 136.533 19.1555 137.555 19.4222L140.044 20C141.555 20.3555 142.711 20.9333 143.422 21.6889C144.177 22.4444 144.533 23.4222 144.533 24.5777C144.533 25.5555 144.266 26.4 143.688 27.2C143.111 27.9555 142.355 28.5777 141.377 29.0222C140.4 29.4666 139.244 29.6889 137.911 29.6889C136.177 29.6889 134.755 29.3333 133.6 28.5777C132.444 27.8222 131.733 26.7111 131.466 25.2889L133.955 24.6666C134.177 25.6 134.622 26.2666 135.288 26.7111C135.955 27.1555 136.8 27.3777 137.866 27.3777C139.066 27.3777 140.044 27.1111 140.755 26.5777C141.466 26.0444 141.822 25.4222 141.822 24.7111C141.822 24.1333 141.6 23.6444 141.2 23.2444C140.8 22.8444 140.133 22.5333 139.288 22.3555L136.444 21.6889C134.888 21.3333 133.733 20.7555 133.022 19.9555C132.311 19.2 131.955 18.2222 131.955 17.0222C131.955 16.0444 132.222 15.2 132.755 14.4889C133.288 13.7333 134.044 13.1555 134.977 12.7555C135.911 12.3555 136.977 12.1333 138.177 12.1333C139.866 12.1333 141.155 12.4889 142.133 13.2444C143.155 14 143.866 14.9777 144.266 16.1777ZM149.422 12.3554V35.6887V35.7331H152.044V26.7554H152.266C152.421 27.0263 152.643 27.331 152.933 27.7281L153.066 27.9109C153.422 28.3554 153.91 28.7998 154.577 29.1554C155.244 29.5109 156.088 29.6887 157.199 29.6887C158.622 29.6887 159.866 29.3331 160.933 28.622C161.999 27.8665 162.844 26.8887 163.466 25.5554C164.088 24.222 164.399 22.6665 164.399 20.8887C164.399 19.1109 164.088 17.5554 163.466 16.2665C162.888 14.9776 162.044 13.9554 160.933 13.2442C159.822 12.5331 158.577 12.1776 157.155 12.1776C156.044 12.1776 155.155 12.3554 154.533 12.7109C153.91 13.0665 153.422 13.5109 153.066 13.9554C152.71 14.3998 152.444 14.7554 152.266 15.0665H151.955V12.3554H149.422ZM152.577 24.222C152.177 23.2442 151.999 22.1331 151.999 20.8442C151.999 19.5998 152.177 18.4887 152.622 17.4665C152.977 16.5331 153.555 15.7776 154.266 15.2442C154.977 14.7109 155.866 14.4442 156.933 14.4442C158.044 14.4442 158.977 14.7109 159.688 15.2887C160.399 15.822 160.977 16.5776 161.333 17.5554C161.688 18.5331 161.866 19.5998 161.866 20.7998C161.866 21.9998 161.644 23.1109 161.288 24.0887C160.933 25.0665 160.355 25.8665 159.644 26.4442C158.888 27.022 157.999 27.3331 156.888 27.3331C155.822 27.3331 154.933 27.022 154.222 26.4887C153.51 25.9554 152.933 25.1998 152.577 24.222ZM176.222 29.6889C174.71 29.6889 173.333 29.3333 172.177 28.5777C171.022 27.8222 170.133 26.8444 169.466 25.5111C168.799 24.2222 168.488 22.6666 168.488 20.9333C168.488 19.1555 168.799 17.6444 169.466 16.3111C170.133 14.9777 171.022 13.9555 172.177 13.2444C173.333 12.5333 174.666 12.1333 176.222 12.1333C177.733 12.1333 179.11 12.4889 180.266 13.2444C181.422 13.9555 182.31 14.9777 182.977 16.3111C183.599 17.6444 183.955 19.1555 183.955 20.9333C183.955 22.6666 183.644 24.2222 182.977 25.5111C182.31 26.8444 181.422 27.8222 180.266 28.5777C179.11 29.3333 177.733 29.6889 176.222 29.6889ZM176.222 27.3333C177.377 27.3333 178.355 27.0222 179.11 26.4444C179.866 25.8666 180.399 25.0666 180.799 24.0889C181.155 23.1111 181.333 22.0444 181.333 20.9333C181.333 19.7777 181.155 18.7555 180.799 17.7777C180.444 16.8 179.866 16 179.11 15.4222C178.355 14.8444 177.422 14.5333 176.222 14.5333C175.066 14.5333 174.088 14.8444 173.333 15.4222C172.577 16 172.044 16.8 171.644 17.7777C171.288 18.7555 171.11 19.8222 171.11 20.9333C171.11 22.0889 171.288 23.1111 171.644 24.0889C171.999 25.0666 172.577 25.8666 173.333 26.4444C174.088 27.0666 175.066 27.3333 176.222 27.3333ZM195.555 27.0222C195.733 26.9777 195.911 26.9333 196 26.9333L196.577 29.2888C196.459 29.3481 196.301 29.3876 196.116 29.4337C196.024 29.4567 195.925 29.4814 195.822 29.511C195.511 29.5555 195.111 29.5999 194.622 29.5999C193.866 29.5999 193.155 29.4222 192.444 29.111C191.733 28.7555 191.155 28.311 190.711 27.6444C190.222 27.0222 190 26.1777 190 25.1999V14.5777H187.422V12.3555H190V8.31104H192.622V12.3555H196.266V14.5777H192.622V24.5333C192.622 25.2444 192.711 25.8222 192.933 26.1777C193.155 26.5333 193.466 26.7555 193.777 26.8888C194.088 27.0222 194.444 27.0666 194.844 27.0666C195.155 27.0666 195.377 27.0666 195.555 27.0222Z" fill="#374151"/>
</svg>
